<?xml version="1.0" ?><svg id="Layer_1_1_" style="enable-background:new 0 0 64 64;" version="1.1" viewBox="0 0 64 64" xml:space="preserve" xmlns="http://www.w3.org/2000/svg" xmlns:xlink="http://www.w3.org/1999/xlink"><g><path d="M62,39c-2.757,0-5-2.243-5-5v-1H42.425l10.989-11l-0.706-0.707c-1.972-1.973-1.972-5.184,0-7.157l0.706-0.707L40.583,0.585   l-0.708,0.708c-0.955,0.956-2.224,1.482-3.574,1.482c-1.35,0-2.619-0.526-3.574-1.482L32.02,0.585L0.637,32l0.706,0.707   c1.972,1.973,1.972,5.184,0,7.157l-0.706,0.707L7,46.941V57h1c2.757,0,5,2.243,5,5v1h44v-1c0-2.757,2.243-5,5-5h1V39H62z    M3.414,40.521c1.875-2.5,1.875-5.972,0-8.472L32.069,3.365c1.214,0.915,2.686,1.41,4.232,1.41c1.547,0,3.018-0.495,4.232-1.41   l10.103,10.113c-1.875,2.5-1.875,5.972,0,8.472L39.598,33h-2.882l1.72-1.722l-1.415-1.413L33.889,33h-7.475l4.293-4.293   l-1.414-1.414L23.586,33h-4.172l19.293-19.293l-1.414-1.414L16.586,33H13v1c0,2.626-2.042,4.762-4.617,4.961   c0.526-1.992,0.47-3.999-0.183-5.988l0.979-0.981l-1.415-1.413L5.876,32.47l0.237,0.608c0.831,2.128,0.831,4.287,0,6.415   l-0.237,0.608L7,41.227v2.885L3.414,40.521z M61,55.071c-3.061,0.44-5.489,2.868-5.929,5.929H14.929   c-0.44-3.061-2.868-5.489-5.929-5.929V40.929c3.061-0.44,5.489-2.868,5.929-5.929h40.143c0.44,3.061,2.868,5.489,5.929,5.929   V55.071z"/><rect height="2" width="3" x="23" y="57"/><path d="M13,52.366V50h-2v3.654l0.599,0.262c2.069,0.906,3.579,2.416,4.485,4.485L16.346,59H19v-2h-1.366   C16.599,54.957,15.043,53.401,13,52.366z"/><rect height="2" width="3" x="23" y="37"/><path d="M13,43.634c2.043-1.035,3.599-2.59,4.634-4.634H19v-2h-2.654l-0.262,0.599c-0.906,2.069-2.416,3.579-4.485,4.485L11,42.346   V46h2V43.634z"/><rect height="2" width="3" x="44" y="57"/><path d="M57,52.366c-2.043,1.035-3.599,2.59-4.634,4.634H51v2h2.654l0.262-0.599c0.906-2.069,2.416-3.579,4.485-4.485L59,53.654V50   h-2V52.366z"/><rect height="2" width="10" x="30" y="37"/><rect height="2" width="10" x="30" y="57"/><rect height="2" width="3" x="44" y="37"/><path d="M53.916,37.599L53.654,37H51v2h1.366c1.035,2.043,2.59,3.599,4.634,4.634V46h2v-3.654l-0.599-0.262   C56.332,41.178,54.822,39.668,53.916,37.599z"/><rect height="2" transform="matrix(0.7066 -0.7076 0.7076 0.7066 -15.7208 16.7981)" width="3.029" x="10.882" y="26.357"/><rect height="2" transform="matrix(0.7066 -0.7076 0.7076 0.7066 -6.632 37.2902)" width="3.029" x="40.139" y="25.643"/><path d="M45.85,21.027l-0.979,0.981l1.415,1.413l1.888-1.891l-0.237-0.608c-0.831-2.128-0.831-4.287,0-6.415l0.237-0.608   l-2.602-2.605l-1.415,1.413l1.693,1.695C45.128,16.603,45.128,18.826,45.85,21.027z"/><rect height="2" transform="matrix(0.7066 -0.7076 0.7076 0.7066 -8.2156 19.8995)" width="10.097" x="14.841" y="18.857"/><rect height="2" transform="matrix(0.7066 -0.7076 0.7076 0.7066 -0.7105 23.0006)" width="3.029" x="25.867" y="11.357"/><path d="M32.993,8.156c2.199,0.722,4.419,0.722,6.617,0l1.693,1.694l1.415-1.414L40.114,5.83l-0.609,0.239   c-2.126,0.832-4.281,0.832-6.407,0L32.489,5.83l-1.89,1.892l1.415,1.413L32.993,8.156z"/><path d="M43.207,45.501l-5.699-0.798L35,39.806l-2.507,4.897l-5.699,0.798l4.127,3.877l-0.964,5.42L35,52.242l5.043,2.556   l-0.964-5.42L43.207,45.501z M37.373,51.202L35,50l-2.373,1.202l0.452-2.54l-1.873-1.76l2.593-0.363L35,44.194l1.201,2.345   l2.593,0.363l-1.873,1.76L37.373,51.202z"/><path d="M21,41.646l-1.915,4.08l-4.16,0.636l3.006,3.081l-0.722,4.429L21,51.776l3.791,2.096l-0.722-4.429l3.006-3.081l-4.16-0.636   L21,41.646z M22.154,50.128L21,49.491l-1.154,0.638l0.222-1.36l-0.994-1.019l1.368-0.209L21,46.354l0.557,1.188l1.368,0.209   l-0.994,1.019L22.154,50.128z"/><path d="M52.068,49.442l3.006-3.081l-4.16-0.636L49,41.646l-1.915,4.08l-4.16,0.636l3.006,3.081l-0.722,4.429L49,51.776   l3.791,2.096L52.068,49.442z M50.154,50.128L49,49.491l-1.154,0.638l0.222-1.36l-0.994-1.019l1.368-0.209L49,46.354l0.557,1.188   l1.368,0.209l-0.994,1.019L50.154,50.128z"/><rect height="2" transform="matrix(0.7071 -0.7071 0.7071 0.7071 -3.5122 32.5208)" width="12.728" x="31.136" y="19.5"/></g></svg>