<?xml version="1.0" ?><!DOCTYPE svg  PUBLIC '-//W3C//DTD SVG 1.1//EN'  'http://www.w3.org/Graphics/SVG/1.1/DTD/svg11.dtd'><svg enable-background="new 0 0 512 512" height="512px" id="Layer_3" version="1.1" viewBox="0 0 512 512" width="512px" xml:space="preserve" xmlns="http://www.w3.org/2000/svg" xmlns:xlink="http://www.w3.org/1999/xlink"><g><path d="M414.8,408c-2.4-16.9-13.8-37.3-29.7-53.5C366,335.2,342.3,324,318.5,323c-9-0.4-16.5,0.3-23,1.7l-34.1-71.2    c-0.4-2.4,6.8-12.7,25.4-21.6c18.6-8.9,31.1-8.1,32.7-6.3c0,0.1,0.1,0.2,0.1,0.2c0.1,0.1,0.1,0.2,0.2,0.3c0,0.1,0.1,0.1,0.1,0.1    c0,0.1,0.1,0.1,0.1,0.2c0,0,0,0.1,0.1,0.1c0,0,0,0.1,0.1,0.1c0.1,0.1,0.2,0.2,0.3,0.3c0,0,0.1,0.1,0.1,0.1    c0.2,0.2,0.3,0.3,0.5,0.5c0.1,0.1,0.2,0.1,0.3,0.2c0.1,0.1,0.2,0.1,0.3,0.2c1,0.7,2.2,1.1,3.4,1.1c0.9,0,1.7-0.2,2.6-0.6    c2.8-1.3,4.1-4.6,3.1-7.4c0,0,0,0,0,0c-0.1-0.1-0.1-0.3-0.2-0.4c0,0,0,0,0-0.1c-0.4-2.4,6.7-12.7,25.4-21.6    c18.6-8.9,31-8.1,32.7-6.3c1.4,3,5,4.2,8,2.8c0,0,0,0,0.1,0c0,0,0.1,0,0.1,0c3-1.4,4.2-5,2.8-8c-18.3-38.3-50.5-67.1-90.5-81.2    c-38.2-13.5-79.3-11.9-116.2,4.2l-1.3-2.3c-1.6-2.9-5.2-4-8.1-2.4c-2.9,1.6-4,5.2-2.4,8.1l1,1.8c-35.5,18.7-62.2,49.6-75.6,87.7    c-14.1,40-11.7,83.1,6.6,121.4c0,0,0,0,0,0c1,2.2,3.2,3.4,5.5,3.4c0.9,0,1.7-0.2,2.6-0.6c2.8-1.3,4.1-4.6,3.1-7.4    c-0.1-0.2-0.1-0.4-0.2-0.5c-0.4-2.4,6.7-12.7,25.4-21.6c18.7-8.9,31.1-8.1,32.7-6.3c0.1,0.2,0.2,0.4,0.3,0.5c0,0,0,0,0,0.1    c0,0,0,0.1,0.1,0.1c0,0.1,0.1,0.1,0.1,0.2c0.1,0.1,0.2,0.2,0.3,0.3c0,0.1,0.1,0.1,0.1,0.2c0,0,0,0,0,0c0,0,0.1,0.1,0.1,0.1    c0.1,0.2,0.3,0.3,0.4,0.4c0,0,0,0,0,0c0,0,0,0,0,0c0.1,0.1,0.2,0.1,0.2,0.2c0.1,0.1,0.2,0.1,0.3,0.2c0,0,0,0,0,0    c0,0,0.1,0,0.1,0.1c1,0.6,2.1,1,3.3,1c0.9,0,1.7-0.2,2.6-0.6c2.7-1.3,4-4.4,3.1-7.1c0,0,0-0.1,0-0.1c0-0.1,0-0.1-0.1-0.2    c0-0.1-0.1-0.1-0.1-0.2c0-0.1,0-0.1-0.1-0.2c0,0,0-0.1-0.1-0.2c-0.4-2.5,6.8-12.7,25.4-21.6c18.7-8.9,31.1-8.1,32.7-6.3l33.4,69.7    c-7.2,2.9-13.4,6.7-19.7,10.6c-14.1,8.6-28.7,17.6-59.7,19.8c-67.9,4.9-77.1,47.2-77.5,49c-0.3,1.8,0.1,3.6,1.2,5    c1.1,1.4,2.8,2.2,4.6,2.2h276c1.7,0,3.4-0.8,4.5-2.1C414.6,411.5,415.1,409.8,414.8,408z M281.5,221.1    c-9.8,4.7-18.5,10.7-24.3,16.8c-0.8,0.8-1.5,1.7-2.2,2.5l-57-119c9.7-3.3,19.7-3,30.4,0.7c37.4,13.2,70.2,65.7,84,90.5    C303.1,212.8,291.7,216.2,281.5,221.1z M381.4,179.5c-0.9,0-1.8,0.1-2.7,0.1c-8.4,0.7-18.4,3.7-28.3,8.4    c-10.6,5.1-20.8,12.2-26.8,19.6c-14-25.6-48.7-81.6-90.5-96.8C290.8,101.8,350.1,128.1,381.4,179.5z M143.8,287.2    c-10.1,4.9-19.9,11.5-26,18.6c-20.8-57.8-3-122,42.5-161.1c-14.2,41.8,6.2,106.4,16.2,133.9C166.8,278.4,154.6,281.9,143.8,287.2z     M212.6,254.1c-9.8,4.7-18.5,10.7-24.3,16.8c-0.5,0.5-0.9,1-1.3,1.4c-4.9-13.7-11.9-35.5-16.1-58.6c-5.7-31.4-7.1-70.9,16.4-87.2    l56.9,118.9C234.8,245.6,223.1,249.1,212.6,254.1z M141.6,402.9c5.6-10.5,21.4-29.2,63.7-32.2c34-2.5,50.5-12.6,65.1-21.6    c6.3-3.9,12.1-7.4,18.7-9.9l11,22.9c-9.5,4-14.8,8.3-15.2,8.6c-2.6,2.1-3,5.9-0.9,8.4c1.2,1.5,2.9,2.2,4.7,2.2    c1.3,0,2.6-0.4,3.8-1.3c0.1-0.1,13.5-10.7,36.1-13c3.3-0.3,5.7-3.3,5.4-6.6c-0.3-3.3-3.3-5.7-6.6-5.4c-5.8,0.6-11,1.7-15.8,3    l-10.6-22.2c4.9-0.8,10.5-1.2,17.1-0.9c20.8,0.9,41.6,10.8,58.6,28c11.8,12,21.1,26.9,24.9,39.9H141.6z"/></g></svg>