<?xml version="1.0" ?><!DOCTYPE svg  PUBLIC '-//W3C//DTD SVG 1.1//EN'  'http://www.w3.org/Graphics/SVG/1.1/DTD/svg11.dtd'><svg enable-background="new 0 0 512 512" height="512px" id="camping" version="1.1" viewBox="0 0 512 512" width="512px" xml:space="preserve" xmlns="http://www.w3.org/2000/svg" xmlns:xlink="http://www.w3.org/1999/xlink"><g><path d="M494.422,331.832c-2.987-2.231-7.217-1.619-9.447,1.368l-19.854,26.587l-74.773-133.291   c-0.734-1.31-1.884-2.336-3.267-2.919l-190.735-80.309l17.215-28.396c1.933-3.188,0.915-7.338-2.272-9.271   c-3.186-1.933-7.338-0.915-9.271,2.272l-14.898,24.573l-11.989-24.083c-1.66-3.336-5.713-4.697-9.051-3.033   c-3.337,1.661-4.696,5.714-3.033,9.051l15.793,31.724l-1.536,2.534l-42.659,69.323L47.146,360.145L27.025,333.2   c-2.229-2.986-6.459-3.601-9.447-1.368c-2.986,2.23-3.6,6.46-1.369,9.447l26.068,34.907c0.001,0.001,0.002,0.001,0.002,0.002   c0.227,0.304,0.483,0.578,0.755,0.836c0.001,0.001,0.002,0.002,0.003,0.003c0.145,0.138,0.29,0.272,0.444,0.396   c0.144,0.115,0.297,0.215,0.449,0.316c0.083,0.057,0.163,0.117,0.248,0.169c0.001,0,0.001,0,0.001,0.001   c0.57,0.346,1.189,0.607,1.843,0.772v0.001c0.126,0.031,0.253,0.054,0.38,0.077c0.419,0.081,0.846,0.138,1.283,0.138h42.206H266.94   h37.667h159.707c0.011,0,0.021-0.002,0.033-0.002c0.022-0.001,0.045-0.005,0.067-0.005c0.346-0.005,0.687-0.042,1.022-0.099l0,0   c0.175-0.029,0.349-0.062,0.52-0.104c0.001,0,0.001,0,0.001,0c1.472-0.37,2.784-1.225,3.716-2.442l0,0   c0.016-0.021,0.033-0.038,0.049-0.059l26.067-34.907C498.021,338.292,497.408,334.063,494.422,331.832z M269.17,365.397   c-63.816-47.975-81.071-131.612-81.239-132.455c-0.615-3.119-3.323-5.387-6.502-5.441c-3.143-0.071-5.966,2.11-6.691,5.207   c-16.769,71.537-76.254,123.579-87.24,132.689H59.766l126.319-205.271l107.374,205.271H269.17z M318.072,365.397l18.011-24.118   c2.23-2.987,1.618-7.217-1.368-9.447c-2.987-2.231-7.217-1.619-9.447,1.368l-19.65,26.313L201.244,159.979l178.462,75.142   l73.082,130.276H318.072z"/><path d="M182.189,393.879H90.453c-3.729,0-6.75,3.021-6.75,6.75s3.021,6.75,6.75,6.75h91.736c3.729,0,6.75-3.021,6.75-6.75   S185.918,393.879,182.189,393.879z"/><path d="M225.39,393.879h-14.85c-3.729,0-6.75,3.021-6.75,6.75s3.021,6.75,6.75,6.75h14.85c3.729,0,6.75-3.021,6.75-6.75   S229.118,393.879,225.39,393.879z"/><path d="M307.739,393.879h-55.35c-3.729,0-6.75,3.021-6.75,6.75s3.021,6.75,6.75,6.75h55.35c3.729,0,6.75-3.021,6.75-6.75   S311.468,393.879,307.739,393.879z"/><path d="M288.795,164.631l13.713,5.696c0.847,0.353,1.724,0.519,2.587,0.519c2.646,0,5.157-1.566,6.236-4.162   c1.43-3.442-0.202-7.394-3.645-8.822l-13.713-5.697c-3.441-1.43-7.393,0.202-8.823,3.645   C283.721,159.251,285.353,163.202,288.795,164.631z"/><path d="M327.442,180.685l51.117,21.232c0.846,0.352,1.723,0.518,2.587,0.518c2.646,0,5.156-1.566,6.235-4.162   c1.431-3.442-0.202-7.394-3.644-8.822l-51.117-21.232c-3.438-1.432-7.392,0.202-8.822,3.645   C322.368,175.304,324,179.255,327.442,180.685z"/></g></svg>