<?xml version="1.0" ?><svg viewBox="0 0 100 100" xmlns="http://www.w3.org/2000/svg"><title/><g data-name="Calque 2" id="Calque_2"><path d="M19.55,56.42h27.5a1.5,1.5,0,0,0,1.5-1.5V39.5a1.5,1.5,0,0,0-1.5-1.5H19.55a1.5,1.5,0,0,0-1.5,1.5V54.92A1.5,1.5,0,0,0,19.55,56.42ZM21.05,41h24.5V53.42H21.05Z"/><path d="M97.47,78.83h-8.7a8.41,8.41,0,0,0,2-5.5V30.5A8.51,8.51,0,0,0,82.3,22H28.14A26.87,26.87,0,0,0,1.3,48.83v24.5a8.51,8.51,0,0,0,8.5,8.5h1.48a10.2,10.2,0,0,0,19.8,0H82.3c.32,0,.64,0,1,0a1.67,1.67,0,0,0,.39,0H97.47a1.5,1.5,0,0,0,0-3Zm-87.67,0a5.5,5.5,0,0,1-5.5-5.5V66.5H61.64V74a1.5,1.5,0,0,0,1.5,1.5H78.3A1.5,1.5,0,0,0,79.8,74V66.5h7.84l.16,0v6.85a5.5,5.5,0,0,1-5.5,5.5ZM82.3,25a5.5,5.5,0,0,1,5.5,5.5v33l-.16,0H79.8V41.08a9.08,9.08,0,1,0-18.16,0V63.5H4.3V48.83A23.86,23.86,0,0,1,28.14,25ZM64.64,41.08a6.08,6.08,0,1,1,12.16,0V72.5H64.64ZM21.18,86.58a7.21,7.21,0,0,1-6.77-4.75H28A7.21,7.21,0,0,1,21.18,86.58Z"/></g></svg>