<?xml version="1.0" ?><svg viewBox="0 0 364.27 430.6" xmlns="http://www.w3.org/2000/svg"><title/><g data-name="Layer 2" id="Layer_2"><g data-name="eiffel, landmark, france, paris, tower, architecture, tourism" id="eiffel_landmark_france_paris_tower_architecture_tourism"><path d="M130.26,214.38h10.45a5.47,5.47,0,0,0,0-10.93h-5V188.29h75.57v15.16h-26a5.47,5.47,0,0,0,0,10.93h31.45a5.46,5.46,0,0,0,5.46-5.46V182.83a5.46,5.46,0,0,0-5.46-5.47h-6.39c-4.38-18.92-8.68-39.2-12.79-60.41A5.46,5.46,0,1,0,186.85,119q.68,3.5,1.36,7l-8.78,7.11a5.46,5.46,0,0,0,6.87,8.5l4.34-3.52q2.55,12.48,5.17,24.41l-5.63-3.13a5.47,5.47,0,0,0-5.3,9.57L199,176.76c.05.2.09.4.14.6H147.86l.15-.64,14.06-7.79a5.47,5.47,0,0,0-5.3-9.57l-5.56,3.08c1.74-7.91,3.46-16,5.15-24.31l4.29,3.47a5.46,5.46,0,1,0,6.87-8.5L158.79,126c.46-2.33.92-4.66,1.38-7A5.46,5.46,0,1,0,149.44,117c-4.12,21.21-8.42,41.49-12.8,60.41h-6.38a5.47,5.47,0,0,0-5.47,5.47v26.09A5.47,5.47,0,0,0,130.26,214.38Z"/><path d="M161.43,203.45a5.47,5.47,0,1,0,0,10.93h.92a5.47,5.47,0,0,0,0-10.93Z"/><path d="M151.5,104.48h25.31a5.47,5.47,0,1,0,0-10.93H157V82.25h33.09V99A5.47,5.47,0,0,0,201,99V76.78a5.47,5.47,0,0,0-5.46-5.46h-6.27c-6.43-37.55-10-64.15-10.31-66.45a5.46,5.46,0,0,0-10.84-.19.59.59,0,0,0,0,.14c-.23,1.74-3.81,28.52-10.32,66.5H151.5A5.47,5.47,0,0,0,146,76.78V99A5.46,5.46,0,0,0,151.5,104.48Zm22-61.56c1.32,8.4,2.87,18,4.65,28.4h-9.31C170.63,60.88,172.18,51.32,173.51,42.92Z"/><path d="M99.42,310.88h64.67a5.47,5.47,0,0,0,0-10.93h-59.2V284H242.13V300H196.92a5.47,5.47,0,1,0,0,10.93h50.67a5.46,5.46,0,0,0,5.47-5.46V278.57a5.47,5.47,0,0,0-5.47-5.46h-10.4c-4.89-14-9.78-29.84-14.54-47.06A5.44,5.44,0,0,0,213,224.3l-12.69,14.18a5.46,5.46,0,1,0,8.14,7.29l6.41-7.16q4,13.84,8,26.3l-10.47-7.33a5.47,5.47,0,0,0-6.27,9l9.39,6.57H199.7l-10.36-38.44a5.47,5.47,0,0,0-5.28-4H163a5.48,5.48,0,0,0-5.28,4l-10.36,38.44H131l9.39-6.57a5.47,5.47,0,0,0-6.27-9l-9.91,6.94c2.62-8.06,5.24-16.6,7.82-25.55l6.08,6.8a5.46,5.46,0,0,0,8.14-7.29l-12.71-14.2c-.08-.09-.18-.15-.26-.24s-.31-.31-.49-.45-.31-.2-.46-.29-.29-.19-.44-.27-.43-.17-.65-.25-.2-.09-.31-.12h-.05a5.54,5.54,0,0,0-.69-.12c-.13,0-.26-.05-.39-.05a3.37,3.37,0,0,0-.55,0c-.17,0-.34,0-.51,0s-.35.08-.52.12-.34.07-.5.12-.33.15-.5.23a4.69,4.69,0,0,0-.46.21c-.13.07-.24.17-.36.25a5,5,0,0,0-.52.38s0,0,0,0a3.71,3.71,0,0,0-.27.29,6.2,6.2,0,0,0-.42.46,4.9,4.9,0,0,0-.31.48c-.08.14-.18.27-.25.42a5.32,5.32,0,0,0-.26.66c0,.1-.08.2-.11.3-4.73,17.07-9.58,32.73-14.43,46.64H99.42A5.47,5.47,0,0,0,94,278.57v26.85A5.46,5.46,0,0,0,99.42,310.88Zm67.72-69.33h12.73l8.51,31.56H158.63Z"/><path d="M134.48,322.51l-4,9.17a5.46,5.46,0,1,0,10,4.35l4-9.16a5.46,5.46,0,1,0-10-4.36Z"/><path d="M205.35,319.67a5.48,5.48,0,0,0-2.84,7.2l4,9.16a5.48,5.48,0,0,0,5,3.29,5.46,5.46,0,0,0,5-7.64l-4-9.17A5.47,5.47,0,0,0,205.35,319.67Z"/><path d="M5.47,430.6h124a5.47,5.47,0,1,0,0-10.93H112.94c2.37-12.05,9.1-39.11,24.26-57.51l.22-.19a7,7,0,0,0,.54-.71c8.82-10.35,20.41-17.74,35.55-17.74,42.06,0,56.8,57,60.56,76.15h-10.8a5.47,5.47,0,1,0,0,10.93H330.74a5.47,5.47,0,1,0,0-10.93h-12c-20.45-21.39-44.75-65.93-57.61-91a5.47,5.47,0,0,0-9.73,5c4,7.76,9,17.34,14.76,27.57l-25.54-3.89a5.46,5.46,0,1,0-1.65,10.8l34.11,5.2c9.69,16.57,20.6,33.57,31.09,46.32h-53l19-26.52a5.46,5.46,0,1,0-8.88-6.37l-17.77,24.76c-3.1-13.71-9.68-35.67-22.46-53l21-19.51a5.47,5.47,0,0,0-7.44-8l-20.65,19.17c-10.16-10.41-23.39-17.64-40.54-17.64s-30.45,7.27-40.62,17.71L113,331.8a5.46,5.46,0,0,0-7.43,8l20.3,18.85c-12.73,17.28-19.3,39.19-22.4,52.88L85.67,386.78a5.47,5.47,0,1,0-8.89,6.37l19,26.52h-53c10.48-12.77,21.42-29.83,31.07-46.32l34.14-5.2a5.46,5.46,0,1,0-1.65-10.8L80.8,361.24c9.07-16.21,16.37-30.58,20-37.94A5.46,5.46,0,0,0,91,318.44C82.3,336,52.45,394.34,28.24,419.67H5.47a5.47,5.47,0,1,0,0,10.93Z"/><path d="M169.39,430.6a5.47,5.47,0,1,0,0-10.93h-7.5a5.47,5.47,0,1,0,0,10.93Z"/><path d="M354.06,430.6h4.74a5.47,5.47,0,1,0,0-10.93h-4.74a5.47,5.47,0,1,0,0,10.93Z"/></g></g></svg>