<?xml version="1.0" ?><svg id="icon" style="enable-background:new 0 0 512 512;" version="1.1" viewBox="0 0 512 512" xml:space="preserve" xmlns="http://www.w3.org/2000/svg" xmlns:xlink="http://www.w3.org/1999/xlink"><g><path d="M464.6981812,322.1477966c-0.946991-1.6401062-2.6958008-2.6488953-4.5866089-2.6488953h-26.3993835   l-30.7487183-90.9049072c-0.7268982-2.1524963-2.7471924-3.6009979-5.0187073-3.6009979h-18.3753967l-11.3251038-35.2341003   c-0.7037964-2.1935883-2.7422485-3.6786957-5.0445862-3.6786957h-53.9844971l15.9670105-52.0800934   c0.491394-1.6040039,0.1938171-3.3526001-0.8045959-4.7031097c-0.9985962-1.350296-2.5792236-2.1471939-4.2605896-2.1471939   h-37.5115356l2.0808105-6.4104996c0.5226135-1.6142044,0.243103-3.3785019-0.7528992-4.7496033   c-0.9985046-1.370903-2.5920105-2.183197-4.286499-2.183197h-55.5932007c-2.2946777,0-4.3303986,1.479599-5.0393982,3.6630936   l-22.2692871,68.6106033h-35.0649109c-2.1186981,0-4.0355988,1.2624969-4.8686066,3.2131042l-15.3007965,35.6996918h-21.5242004   c-2.0255966,0-3.8724823,1.1536102-4.7599945,2.9748993l-27.7330017,56.7832031H51.8880844   c-1.9687996,0-3.774498,1.0917969-4.690197,2.8353882c-0.915802,1.7434998-0.7890015,3.8492126,0.3284988,5.4687195   l70.8793945,102.8461914c0.9882126,1.433197,2.6179962,2.2921143,4.361702,2.2921143h298.1105957   c1.8934937,0,3.644928-1.0143127,4.5915833-2.6544189l39.2335205-68.0983887   C465.6474609,325.8005066,465.644989,323.7828064,464.6981812,322.1477966z M403.3447876,262.7879944l3.1990967,9.4580078   h-20.8326111c-2.6076965,0-4.7288818-2.1213989-4.7288818-4.729187c0-2.6075134,2.1211853-4.7288208,4.7288818-4.7288208   H403.3447876z M312.9510803,137.7460022l-14.8182983,48.334198h-34.6567688l15.6896667-48.334198H312.9510803z    M227.9029999,124.4024963h44.4537811l-20.0209961,61.6777039h-44.4507904L227.9029999,124.4024963z M165.1723785,196.6761017   h194.1649933l9.1022034,28.3168945H153.0351868L165.1723785,196.6761017z M123.2950821,235.5890045h21.6530991   c0.0173035,0,0.0338135,0,0.0516968,0h249.1445923l5.6159058,16.6029968h-14.0491028   c-8.4513855,0-15.3251038,6.8759918-15.3251038,15.3248138c0,8.4489746,6.8737183,15.3250732,15.3251038,15.3250732h24.4165039   l12.3988953,36.6570129H210.1720886l-24.8164063-32.6577148c-1.0036011-1.3139954-2.5635986-2.0900879-4.2191925-2.0900879   H99.2829971L123.2950821,235.5890045z M417.8151855,387.59729H125.5510025l-63.5765152-92.25h116.5335999l24.8164978,32.6575012   c1.0037994,1.3139954,2.5635986,2.0899963,4.2191925,2.0899963h243.4019928L417.8151855,387.59729z"/><path d="M383.1682739,380.6123962c10.9039917,0,19.7770996-8.8729858,19.7770996-19.7795105   c0-10.9065857-8.8731079-19.7797852-19.7770996-19.7797852c-10.9065857,0-19.7796936,8.8731995-19.7796936,19.7797852   C363.3885803,371.7394104,372.2616882,380.6123962,383.1682739,380.6123962z M383.1682739,351.6489868   c5.0627136,0,9.1810913,4.1187134,9.1810913,9.1838989c0,5.0652161-4.1183777,9.1836243-9.1810913,9.1836243   c-5.0625916,0-9.1835938-4.1184082-9.1835938-9.1836243C373.9846802,355.7677002,378.1056824,351.6489868,383.1682739,351.6489868z   "/><path d="M330.1257935,380.6123962c10.9063721,0,19.7795715-8.8729858,19.7795715-19.7795105   c0-10.9065857-8.8731995-19.7797852-19.7795715-19.7797852c-10.9039001,0-19.7770996,8.8731995-19.7770996,19.7797852   C310.3486938,371.7394104,319.2218933,380.6123962,330.1257935,380.6123962z M330.1257935,351.6489868   c5.0625,0,9.1836853,4.1187134,9.1836853,9.1838989c0,5.0652161-4.1211853,9.1836243-9.1836853,9.1836243   c-5.0627136,0-9.1811218-4.1184082-9.1811218-9.1836243C320.9446716,355.7677002,325.0630798,351.6489868,330.1257935,351.6489868z   "/><path d="M214.1197815,282.8418884h41.1089935c8.4514008,0,15.3249969-6.8760986,15.3249969-15.3250732   c0-8.448822-6.8735962-15.3248138-15.3249969-15.3248138h-41.1089935c-8.4514923,0-15.3251038,6.8759918-15.3251038,15.3248138   C198.7946777,275.9657898,205.6682892,282.8418884,214.1197815,282.8418884z M214.1197815,262.7879944h41.1089935   c2.6078033,0,4.7288055,2.1213074,4.7288055,4.7288208c0,2.6077881-2.1210022,4.729187-4.7288055,4.729187h-41.1089935   c-2.6074982,0-4.7288971-2.1213989-4.7288971-4.729187C209.3908844,264.9093018,211.5122833,262.7879944,214.1197815,262.7879944z"/><path d="M298.9273682,282.8418884h41.1116333c8.4487915,0,15.3223877-6.8760986,15.3223877-15.3250732   c0-8.448822-6.8735962-15.3248138-15.3223877-15.3248138h-41.1116333c-8.4490967,0-15.3223572,6.8759918-15.3223572,15.3248138   C283.605011,275.9657898,290.4782715,282.8418884,298.9273682,282.8418884z M298.9273682,262.7879944h41.1116333   c2.605011,0,4.7261658,2.1213074,4.7261658,4.7288208c0,2.6077881-2.1211548,4.729187-4.7261658,4.729187h-41.1116333   c-2.6051025,0-4.7265015-2.1213989-4.7265015-4.729187C294.2008667,264.9093018,296.3222656,262.7879944,298.9273682,262.7879944z"/></g></svg>