<?xml version="1.0" ?><!DOCTYPE svg  PUBLIC '-//W3C//DTD SVG 1.1//EN'  'http://www.w3.org/Graphics/SVG/1.1/DTD/svg11.dtd'><svg height="100%" style="fill-rule:evenodd;clip-rule:evenodd;stroke-linejoin:round;stroke-miterlimit:2;" version="1.1" viewBox="0 0 32 32" width="100%" xml:space="preserve" xmlns="http://www.w3.org/2000/svg" xmlns:serif="http://www.serif.com/" xmlns:xlink="http://www.w3.org/1999/xlink"><path d="M4,15.914l0,4.585c0,3.587 2.913,6.501 6.5,6.501c2.468,0 3.759,-0.004 4.257,-0.006c0.617,1.75 2.286,3.006 4.246,3.006c2.484,-0 4.5,-2.017 4.5,-4.501c0,-0.807 -0.212,-1.565 -0.585,-2.22c0.012,-0.018 0.897,-1.788 0.897,-1.788c2.883,-0.17 5.186,-2.671 5.186,-5.741c-0,-3.18 -2.472,-5.75 -5.5,-5.75l-9.009,0c-3.023,0.006 -5.489,2.574 -5.489,5.75c0,3.069 2.302,5.569 5.184,5.741c-0,-0 0.887,1.772 0.9,1.79c-0.13,0.227 -0.24,0.467 -0.328,0.717l-3.758,-0.024c-2.207,-0 -4,-1.794 -4,-3.974c0,-1.791 -0,-3.366 -0.001,-4.086c0.584,-0.205 1.002,-0.761 1.002,-1.415l-0,-2c-0,-0.653 -0.418,-1.209 -1.002,-1.415c0,-0.714 0,-2.1 -0,-2.105c-0.011,-0.818 -0.679,-1.478 -1.5,-1.478c-0.828,-0 -1.5,0.671 -1.5,1.499l0,2.085c-0.582,0.206 -0.999,0.762 -0.999,1.414l0,2c0,0.653 0.417,1.209 0.999,1.415Zm15.003,6.084c1.932,-0 3.5,1.568 3.5,3.501c0,1.932 -1.568,3.501 -3.5,3.501c-1.932,-0 -3.501,-1.569 -3.501,-3.501c0,-1.933 1.569,-3.501 3.501,-3.501Zm-0.002,1.003c-1.379,0 -2.499,1.12 -2.499,2.5c-0,1.379 1.12,2.499 2.499,2.499c1.38,-0 2.5,-1.12 2.5,-2.499c-0,-1.38 -1.12,-2.5 -2.5,-2.5Zm0,1c0.828,0 1.5,0.672 1.5,1.5c-0,0.827 -0.672,1.499 -1.5,1.499c-0.827,0 -1.499,-0.672 -1.499,-1.499c-0,-0.828 0.672,-1.5 1.499,-1.5Zm-13.001,-8.002l-1,0l0,4.5c0,3.035 2.465,5.501 5.5,5.501c2.159,0 3.416,-0.003 4.029,-0.005c-0.018,-0.163 -0.027,-0.329 -0.027,-0.496c0,-0.17 0.01,-0.338 0.028,-0.503l-3.532,-0.022c-2.759,-0.002 -4.997,-2.248 -4.997,-4.974c0,-1.724 -0,-3.247 -0.001,-4.001Zm16.251,6.386l0.71,-1.423l-0.367,-1.096c-1.224,-0.141 -2.171,-0.912 -2.857,-1.866l-1.474,-0c-0.685,0.953 -1.631,1.722 -2.855,1.863l-0.367,1.099l0.712,1.424c0.226,-0.235 0.477,-0.447 0.749,-0.629l-0,-0.757c-0,-0.398 0.158,-0.779 0.439,-1.061c0.281,-0.281 0.663,-0.439 1.061,-0.439c0.611,-0 1.389,0 2,0c0.398,-0 0.78,0.158 1.061,0.439c0.281,0.282 0.439,0.663 0.439,1.061l0,0.756c0.272,0.182 0.524,0.393 0.749,0.629Zm-1.749,-1.131l0,-0.254c0,-0.133 -0.052,-0.26 -0.146,-0.354c-0.094,-0.093 -0.221,-0.146 -0.354,-0.146l-2,-0c-0.133,-0 -0.26,0.053 -0.354,0.146c-0.094,0.094 -0.146,0.221 -0.146,0.354l-0,0.254c0.469,-0.166 0.974,-0.256 1.501,-0.256c0.525,-0 1.03,0.09 1.499,0.256Zm3.354,-0.769c2.323,-0.191 4.145,-2.245 4.145,-4.735c-0,-2.615 -2.01,-4.75 -4.5,-4.75l-8.998,0c-2.49,0 -4.5,2.135 -4.5,4.75c0,2.488 1.82,4.542 4.142,4.735l0.216,-0.645c-2.071,-0.301 -3.656,-2.047 -3.656,-4.145c-0,-2.31 1.921,-4.192 4.296,-4.192l8,0.003c2.374,-0 4.296,1.882 4.296,4.192c-0,2.098 -1.585,3.843 -3.656,4.145l0.215,0.642Zm-3.438,-3.26c-0.093,-0.14 -0.25,-0.225 -0.418,-0.225l-2,-0c-0.168,-0 -0.325,0.085 -0.418,0.225c-0.584,0.888 -1.418,1.662 -2.581,1.662c-1.816,-0 -3.296,-1.427 -3.296,-3.192c-0,-1.766 1.48,-3.192 3.296,-3.192c2.095,-0 5.904,0.003 8,0.003c1.815,-0 3.296,1.426 3.296,3.192c-0,1.765 -1.481,3.192 -3.296,3.192c-1.164,-0 -1.999,-0.777 -2.583,-1.665Zm-13.416,-4.726l-0,2c-0,0.276 -0.224,0.5 -0.5,0.5l-2.001,0c-0.276,0 -0.5,-0.224 -0.5,-0.5c0,0 0,-2 0,-2c0,-0.276 0.224,-0.5 0.5,-0.5l2.001,0c0.276,0 0.5,0.224 0.5,0.5Zm-1.002,-1.5l0,-1.999c0,-0.276 -0.224,-0.499 -0.5,-0.499c-0.276,-0 -0.5,0.223 -0.5,0.499l0,1.999l1,0Zm0.501,-7.999c-1.104,-0 -2,0.896 -2,2c0,1.104 0.896,2 2,2c1.104,-0 2,-0.896 2,-2c0,-1.104 -0.896,-2 -2,-2Zm0,1c0.552,-0 1,0.448 1,1c0,0.552 -0.448,1 -1,1c-0.552,-0 -1,-0.448 -1,-1c0,-0.552 0.448,-1 1,-1Zm3.999,-2.004c-0.828,0 -1.5,0.673 -1.5,1.5c0,0.828 0.672,1.5 1.5,1.5c0.828,0 1.5,-0.672 1.5,-1.5c0,-0.827 -0.672,-1.5 -1.5,-1.5Zm0,1c0.276,0 0.5,0.225 0.5,0.5c0,0.276 -0.224,0.5 -0.5,0.5c-0.276,0 -0.5,-0.224 -0.5,-0.5c0,-0.275 0.224,-0.5 0.5,-0.5Z" id="Snorkle"/></svg>