<?xml version="1.0" ?><svg viewBox="0 0 441.68 419.19" xmlns="http://www.w3.org/2000/svg"><title/><g data-name="Layer 2" id="Layer_2"><g data-name="burger, smoothie, drink, fresh, food, meal, fast, restaurant, junk, fastfood" id="burger_smoothie_drink_fresh_food_meal_fast_restaurant_junk_fastfood"><path d="M136.58,353.87a5.39,5.39,0,0,0,0,10.78H246.16a5.39,5.39,0,1,0,0-10.78Z"/><path d="M33.79,364.15a5.39,5.39,0,0,0,1.08-10.67A19,19,0,0,1,23,324.09c1.38.89,2.74,1.84,4.14,2.85C32,330.45,37.33,334.3,45.7,336c.07,31.09,0,37.33-.08,38.23A5.37,5.37,0,0,1,51,369.4a5.34,5.34,0,0,0-5.33,5.39,4.47,4.47,0,0,0,.07.82v14.56a15.4,15.4,0,0,0,15.41,15.41h.29a15.66,15.66,0,0,0,15.13-15.74v-6.28a3.38,3.38,0,0,1,3.38-3.38h1a3.38,3.38,0,0,1,3.39,3.38,19.89,19.89,0,0,0,39.78,0V339.8a5.39,5.39,0,0,0-10.78,0v43.76a9.11,9.11,0,1,1-18.22,0A14.18,14.18,0,0,0,81,369.4h-1a14.17,14.17,0,0,0-14.16,14.16v6.28a4.83,4.83,0,0,1-4.55,5,4.9,4.9,0,0,1-3.34-1.32,4.63,4.63,0,0,1-1.38-3.31V374.79a5.8,5.8,0,0,0-.12-1.11c.11-2.35.11-6.11.12-12.39,0-6.86,0-15.59,0-24.42,13.25-.34,20.35-5.42,26.62-9.93,5.91-4.26,11-7.94,21.7-7.94s16.09,3.7,22.28,8c6.52,4.51,13.91,9.63,27.23,9.88l.64,0h.64c13.45-.27,20.6-5.41,26.92-9.95,5.91-4.25,11-7.93,21.71-7.93s15.79,3.68,21.7,7.94c3.9,2.8,8.32,6,14.37,7.95a5.39,5.39,0,0,0,3.34-10.25c-4.46-1.45-7.83-3.88-11.41-6.45-6.48-4.67-13.83-10-28-10s-21.52,5.29-28,10c-5.76,4.14-10.74,7.72-20.94,7.92h-.65c-10.17-.2-15.38-3.8-21.41-8-6.7-4.64-14.3-9.9-28.41-9.9s-21.52,5.3-28,10c-5.91,4.25-11,7.93-21.71,7.93s-15.79-3.68-21.7-7.93c-2.05-1.48-4.18-3-6.58-4.42A38.36,38.36,0,0,0,14.11,309a4.12,4.12,0,0,1-3.33-4.1,5.39,5.39,0,0,0-10.78,0,14.92,14.92,0,0,0,12.14,14.7c.27.05.53.13.8.19A29.82,29.82,0,0,0,32.71,364,5,5,0,0,0,33.79,364.15Z"/><path d="M250,408.41H45.72a16.27,16.27,0,0,1-16.25-16.25v-15a5.39,5.39,0,0,0-10.78,0v15a27.06,27.06,0,0,0,27,27H250a5.39,5.39,0,1,0,0-10.78Z"/><path d="M151,222.48a5.39,5.39,0,1,0,0,10.77h4.24a5.39,5.39,0,1,0,0-10.77Z"/><path d="M175.77,259.5a5.39,5.39,0,0,0,0,10.78H180a5.39,5.39,0,1,0,0-10.78Z"/><path d="M126.27,259.5a5.39,5.39,0,0,0,0,10.78h4.24a5.39,5.39,0,1,0,0-10.78Z"/><path d="M101.52,222.48a5.39,5.39,0,1,0,0,10.77h4.24a5.39,5.39,0,1,0,0-10.77Z"/><path d="M76.78,259.5a5.39,5.39,0,0,0,0,10.78H81a5.39,5.39,0,1,0,0-10.78Z"/><path d="M200.6,222.48a5.39,5.39,0,1,0,0,10.77h4.24a5.39,5.39,0,1,0,0-10.77Z"/><path d="M225.44,259.5a5.39,5.39,0,0,0,0,10.78h4.24a5.39,5.39,0,0,0,0-10.78Z"/><path d="M16.17,295.28a5.39,5.39,0,0,0,5.39,5.39H235.92a5.39,5.39,0,1,0,0-10.78H27.25a84.93,84.93,0,0,1,84.64-79.44h82.83A84.57,84.57,0,0,1,225.05,216,5.39,5.39,0,0,0,228.91,206a95.19,95.19,0,0,0-34.19-6.3H111.89a95.71,95.71,0,0,0-95.58,94.42A5.17,5.17,0,0,0,16.17,295.28Z"/><path d="M334.33,158.9h4.17a5.39,5.39,0,0,0,0-10.78h-4.17a5.39,5.39,0,1,0,0,10.78Z"/><path d="M430.88,149c-4.15-29.17-18.27-50.87-42.06-64.52-17.16-9.85-35.21-12.8-44.93-13.69V61.41a36.75,36.75,0,0,1,8.36-23.3L376.39,8.82A5.4,5.4,0,0,0,368.06,2l-24.13,29.3a47.5,47.5,0,0,0-10.82,30.15V98.8a5.39,5.39,0,1,0,10.78,0V81.59c20.18,2,66.95,12.42,76,66.53H360a5.39,5.39,0,1,0,0,10.78h65.76A5.12,5.12,0,0,1,430.9,164v19.75H241.31V164a5.12,5.12,0,0,1,5.12-5.12h65.73a5.39,5.39,0,0,0,0-10.78h-59.8c7.17-43.11,38.05-58.9,63.3-64.49a5.39,5.39,0,0,0-2.33-10.53c-23.84,5.28-64.33,22.16-72,75.88a15.91,15.91,0,0,0-10.79,15v25.14a5.39,5.39,0,0,0,5.39,5.39h14.17l23.34,219.12a5.39,5.39,0,0,0,5.36,4.82H393.43a5.4,5.4,0,0,0,5.36-4.82l23.34-219.12h14.16a5.39,5.39,0,0,0,5.39-5.39V164A15.91,15.91,0,0,0,430.88,149ZM396.16,336.55H276.05l-6.68-62.71H402.84Zm-7.58,71.16H283.63l-6.43-60.38H395ZM404,263.06H268.23l-7.3-68.51H411.29Z"/><path d="M280.19,233.27c2.58-.18,5.29-.24,8-.18h.14c.13-.05,15.36,0,34.81,6.18A69.09,69.09,0,0,0,344,242.51a66.2,66.2,0,0,0,24.33-4.58,176.09,176.09,0,0,1,26.39-8.16,5.39,5.39,0,1,0-2.35-10.52,187.64,187.64,0,0,0-28,8.65,56.81,56.81,0,0,1-37.95,1.1c-20.47-6.5-36.58-6.68-38-6.69-3.07-.07-6.1,0-9,.21a5.39,5.39,0,1,0,.77,10.75Z"/><path d="M336.11,330.92a24.91,24.91,0,1,0,0-49.81,5.39,5.39,0,0,0,0,10.78A14.13,14.13,0,1,1,322,306a14.51,14.51,0,0,1,.44-3.55A5.39,5.39,0,1,0,312,299.79a24.94,24.94,0,0,0,24.13,31.13Z"/></g></g></svg>